<svg width="2297" height="275" viewBox="0 0 2297 275" fill="none" xmlns="http://www.w3.org/2000/svg">
<path d="M2111.06 128.626C2163.77 185.312 2268.35 50.748 2290 4L17.5 4.00001C-32.4145 51.9675 69.3735 190.415 145.749 83.0976C191.835 18.3405 245.578 56.2683 318.946 129.846C392.314 203.423 378.483 69.683 474.102 45.6993C569.721 21.7155 597.013 379.74 686.389 237.163C716.458 189.196 653.313 155.049 800.05 56.2683C946.786 -42.5122 944.982 121.309 1067.06 214.399C1189.14 307.488 1209.59 59.5204 1326.26 123.748C1406.96 168.175 1420.67 81.8782 1511.48 45.6993C1602.29 9.52044 1605.3 138.789 1667.24 179.033C1729.18 219.277 1716.22 108.474 1766.47 68.057C1826.6 19.6833 2044.9 57.4882 2111.06 128.626Z" fill="black" stroke="white" stroke-width="8"/>
<rect x="2278" y="16" width="2260" height="15.9999" transform="rotate(-180 2278 16)" fill="black"/>
<path d="M2288 0.5L2282.5 9L2274 10.5V0.5H2288Z" fill="black" stroke="black"/>
</svg>
